<svg xmlns="http://www.w3.org/2000/svg" width="24" height="24" viewBox="0 0 24 24">
<defs><style>.a{fill:#bcbccb;}.b{fill:none;}</style></defs>
<path class="a" d="M14.963,5.85,16.2,3.487,14.625,1.912,12.263,3.15a4.03,4.03,0,0,0-1.238-.45l-.9-2.7H7.875l-.9,2.587a4.7,4.7,0,0,0-1.125.45L3.487,1.8,1.8,3.487,3.038,5.85a4.7,4.7,0,0,0-.45,1.125L0,7.875v2.25l2.587.9c.112.45.338.787.45,1.238L1.8,14.625,3.375,16.2l2.362-1.237a4.03,4.03,0,0,0,1.238.45L7.875,18h2.25l.9-2.588c.45-.113.787-.337,1.238-.45L14.625,16.2,16.2,14.625l-1.237-2.362a4.03,4.03,0,0,0,.45-1.238l2.588-.9V7.875l-2.588-.9A4.7,4.7,0,0,0,14.963,5.85ZM9,12.375A3.315,3.315,0,0,1,5.625,9,3.315,3.315,0,0,1,9,5.625,3.315,3.315,0,0,1,12.375,9,3.315,3.315,0,0,1,9,12.375Z" transform="translate(3 3)"/>
<path class="b" d="M0,0H24V24H0Z"/></svg>